<?xml version="1.0" encoding="UTF-8" standalone="no"?>
<!-- Created with Inkscape (http://www.inkscape.org/) -->

<svg
   version="1.1"
   id="svg2"
   width="560"
   height="560"
   viewBox="0 0 560 560"
   sodipodi:docname="george computer services-ly.ai"
   xmlns:inkscape="http://www.inkscape.org/namespaces/inkscape"
   xmlns:sodipodi="http://sodipodi.sourceforge.net/DTD/sodipodi-0.dtd"
   xmlns="http://www.w3.org/2000/svg"
   xmlns:svg="http://www.w3.org/2000/svg">
  <defs
     id="defs6">
    <clipPath
       clipPathUnits="userSpaceOnUse"
       id="clipPath16">
      <path
         d="M 0,420 H 420 V 0 H 0 Z"
         id="path14" />
    </clipPath>
    <clipPath
       clipPathUnits="userSpaceOnUse"
       id="clipPath30">
      <path
         d="M 0,420 H 420 V 0 H 0 Z"
         id="path28" />
    </clipPath>
  </defs>
  <sodipodi:namedview
     id="namedview4"
     pagecolor="#ffffff"
     bordercolor="#000000"
     borderopacity="0.25"
     inkscape:showpageshadow="2"
     inkscape:pageopacity="0.0"
     inkscape:pagecheckerboard="0"
     inkscape:deskcolor="#d1d1d1" />
  <g
     id="g8"
     inkscape:groupmode="layer"
     inkscape:label="george computer services-ly"
     transform="matrix(1.3333333,0,0,-1.3333333,0,560)">
    <g
       id="g10">
      <g
         id="g12"
         clip-path="url(#clipPath16)">
        <path
           d="M 408.4,11.255 H 14.244 V 405.411 H 408.4 Z"
           style="fill:none;stroke:#231f20;stroke-width:14;stroke-linecap:butt;stroke-linejoin:miter;stroke-miterlimit:10;stroke-dasharray:none;stroke-opacity:1"
           id="path18" />
      </g>
    </g>
    <g
       id="g20"
       transform="translate(341.6262,335.8549)">
      <path
         d="M 0,0 -260.608,-255.93"
         style="fill:none;stroke:#231f20;stroke-width:14;stroke-linecap:butt;stroke-linejoin:miter;stroke-miterlimit:10;stroke-dasharray:none;stroke-opacity:1"
         id="path22" />
    </g>
    <g
       id="g24">
      <g
         id="g26"
         clip-path="url(#clipPath30)">
        <g
           id="g32"
           transform="translate(275.0241,138.5472)">
          <path
             d="m 0,0 c 2.673,-4.603 6.25,-8.086 10.728,-10.447 4.476,-2.365 9.327,-3.545 14.55,-3.545 3.233,0 6.466,0.682 9.701,2.053 3.233,1.366 6.186,3.357 8.862,5.969 2.673,2.612 4.818,5.813 6.436,9.608 1.615,3.792 2.425,8.176 2.425,13.152 0,4.973 -0.81,9.356 -2.425,13.152 -1.618,3.792 -3.763,6.996 -6.436,9.608 -2.676,2.611 -5.629,4.599 -8.862,5.97 -3.235,1.367 -6.468,2.051 -9.701,2.051 -5.223,0 -10.074,-1.183 -14.55,-3.544 C 6.25,41.663 2.673,38.18 0,33.58 -2.676,28.978 -4.011,23.381 -4.011,16.79 -4.011,10.196 -2.676,4.6 0,0 m -2.332,-31.715 c 0,-4.104 1.119,-7.929 3.358,-11.473 2.239,-3.544 5.411,-6.404 9.515,-8.582 4.104,-2.174 8.954,-3.264 14.551,-3.264 4.352,0 8.642,1.057 12.872,3.171 4.227,2.116 7.742,5.442 10.541,9.981 2.798,4.541 4.197,10.418 4.197,17.629 v 83.951 h 14.925 v -83.951 c 0,-9.823 -2.053,-18.063 -6.156,-24.719 -4.105,-6.651 -9.393,-11.659 -15.858,-15.017 -6.468,-3.358 -13.309,-5.037 -20.521,-5.037 -8.334,0 -15.703,1.556 -22.107,4.664 -6.407,3.11 -11.412,7.494 -15.018,13.152 -3.609,5.661 -5.41,12.158 -5.41,19.495 z m -11.007,72.478 c 3.854,6.651 9.017,11.782 15.485,15.39 6.465,3.606 13.554,5.41 21.267,5.41 5.346,0 10.229,-1.026 14.645,-3.078 4.413,-2.051 8.208,-5.007 11.38,-8.861 3.171,-3.856 5.625,-8.553 7.369,-14.085 1.74,-5.536 2.611,-11.785 2.611,-18.749 0,-6.967 -0.871,-13.217 -2.611,-18.749 -1.744,-5.535 -4.198,-10.231 -7.369,-14.085 -3.172,-3.856 -6.967,-6.81 -11.38,-8.861 -4.416,-2.053 -9.299,-3.078 -14.645,-3.078 -7.713,0 -14.802,1.803 -21.267,5.41 -6.468,3.605 -11.631,8.767 -15.485,15.483 -3.856,6.717 -5.783,14.674 -5.783,23.88 0,9.327 1.927,17.317 5.783,23.973"
             style="fill:#231f20;fill-opacity:1;fill-rule:nonzero;stroke:none"
             id="path34" />
        </g>
        <g
           id="g36"
           transform="translate(87.3704,336.8518)">
          <path
             d="m 0,0 h 74.074 c 5.114,0 9.259,-4.146 9.259,-9.259 v -46.297 c 0,-5.113 -4.145,-9.259 -9.259,-9.259 H 0 c -5.114,0 -9.259,4.146 -9.259,9.259 V -9.259 C -9.259,-4.146 -5.114,0 0,0 Z"
             style="fill:none;stroke:#110f0d;stroke-width:8;stroke-linecap:round;stroke-linejoin:round;stroke-miterlimit:4;stroke-dasharray:none;stroke-opacity:1"
             id="path38" />
        </g>
        <g
           id="g40"
           transform="translate(105.8889,253.5185)">
          <path
             d="M 0,0 H 37.037"
             style="fill:none;stroke:#110f0d;stroke-width:8;stroke-linecap:round;stroke-linejoin:round;stroke-miterlimit:4;stroke-dasharray:none;stroke-opacity:1"
             id="path42" />
        </g>
        <g
           id="g44"
           transform="translate(124.4074,272.037)">
          <path
             d="M 0,0 V -18.519"
             style="fill:none;stroke:#110f0d;stroke-width:8;stroke-linecap:round;stroke-linejoin:round;stroke-miterlimit:4;stroke-dasharray:none;stroke-opacity:1"
             id="path46" />
        </g>
      </g>
    </g>
  </g>
</svg>
